<svg id="Livello_1" data-name="Livello 1" xmlns="http://www.w3.org/2000/svg" xmlns:xlink="http://www.w3.org/1999/xlink" viewBox="0 0 768.17 581.03">
  <defs>
    <style>
      .cls-1 {
        fill: none;
      }

      .cls-2 {
        fill: #e2792c;
        fill-rule: evenodd;
      }

      .cls-3 {
        fill: #3a9ecd;
      }

      .cls-4 {
        clip-path: url(#clip-path);
      }

      .cls-5, .cls-6, .cls-7 {
        font-size: 80px;
        font-family: Roboto-Light, Roboto;
        font-weight: 300;
      }

      .cls-5 {
        letter-spacing: -0.02em;
      }

      .cls-6 {
        letter-spacing: -0.02em;
      }

      .cls-7 {
        letter-spacing: -0.02em;
      }
    </style>
    <clipPath id="clip-path" transform="translate(-37.83 -17.66)">
      <rect class="cls-1" x="361.82" y="53.42" width="133.79" height="152.1"/>
    </clipPath>
  </defs>
  <path class="cls-2" d="M402.2,182.83c18.13,12.09,32.28,31.9,32.28,55.87a64.7,64.7,0,0,1-18.14,45.06l0,.05c-13.9,15.6-21.24,32.63-21.24,53.26a77.54,77.54,0,0,0,77.53,77.55c41,0,74.12-31.83,77.32-72.08.19-2.36.72-7.2.79-9.89,3-46.25,40.65-81,87.66-81,19.07,0,29.82,4.3,48.35,4.84,50.81,1.47,94.21-31.81,111.39-76.6A119.32,119.32,0,0,0,645,25.44C622.2,34,606,49,589.69,68.49,587.88,70.81,586,73,584.35,75a105.47,105.47,0,0,1-36.45,30.14,88.52,88.52,0,0,1-39.32,9.34,93.13,93.13,0,0,1-51.3-15.32c-2.74-1.79-5.11-3.39-7.63-4.92l-1.39-.8a48,48,0,0,0-24-6.68,50.41,50.41,0,0,0-50.4,50.4c0,18.29,8.75,33.37,24,42.81,1.09.68,4.08,2.7,4.33,2.82Zm127.15,71.56c-34.71,11.37-54.79-6.85-63.85-34.5s-3.67-54.2,31-65.58,70.18,1.8,79.25,29.43S564.05,243,529.35,254.39Z" transform="translate(-37.83 -17.66)"/>
  <path class="cls-3" d="M441.65,186.33c.25-.12,3.25-2.15,4.34-2.82,15.27-9.44,24-24.53,24-42.81a50.39,50.39,0,0,0-50.39-50.4,47.85,47.85,0,0,0-24,6.69c-.46.26-.93.51-1.39.79-2.53,1.53-4.88,3.13-7.63,4.93A93.17,93.17,0,0,1,335.28,118a88.55,88.55,0,0,1-39.34-9.35,105.37,105.37,0,0,1-36.46-30.13c-1.61-2.1-3.53-4.24-5.34-6.55-16.3-19.46-32.51-34.54-55.29-43A119.29,119.29,0,0,0,45.73,183.39c17.18,44.78,60.58,78.06,111.39,76.6,18.53-.54,29.28-4.85,48.36-4.85,47,0,84.66,34.75,87.66,81,.07,2.68.6,7.52.78,9.9,3.21,40.24,36.34,72.07,77.34,72.07a77.53,77.53,0,0,0,77.53-77.54c0-20.64-7.34-37.68-21.23-53.28l-.05-.05a64.67,64.67,0,0,1-18.13-45.05c0-24,14.14-43.78,32.27-55.87M314.5,257.88c-34.72-11.37-55.51-43-46.45-70.64s44.54-40.82,79.26-29.43,40.11,38,31.05,65.59-29.15,45.86-63.86,34.48" transform="translate(-37.83 -17.66)"/>
  <g class="cls-4">
    <path class="cls-2" d="M402.2,182.58c18.13,12.09,32.28,31.9,32.28,55.87a64.72,64.72,0,0,1-18.14,45.06l0,.05c-13.9,15.6-21.24,32.63-21.24,53.26a77.54,77.54,0,0,0,77.53,77.55c41,0,74.12-31.83,77.32-72.08.19-2.36.72-7.2.79-9.89,3-46.25,40.65-81,87.66-81,19.07,0,29.82,4.3,48.35,4.84,50.81,1.47,94.21-31.81,111.39-76.6A119.3,119.3,0,0,0,645,25.19c-22.78,8.51-39,23.58-55.29,43.05-1.81,2.32-3.72,4.46-5.34,6.55a105.47,105.47,0,0,1-36.45,30.14,88.66,88.66,0,0,1-39.32,9.34A93.13,93.13,0,0,1,457.28,99c-2.74-1.79-5.11-3.39-7.63-4.92l-1.39-.8a48,48,0,0,0-24-6.68,50.41,50.41,0,0,0-50.4,50.4c0,18.29,8.75,33.37,24,42.81,1.09.68,4.08,2.7,4.33,2.82Zm127.15,71.56c-34.71,11.37-54.79-6.85-63.85-34.5s-3.67-54.2,31-65.58,70.18,1.8,79.25,29.43-11.74,59.27-46.44,70.65Z" transform="translate(-37.83 -17.66)"/>
  </g>
</svg>
